<mxfile host="app.diagrams.net" modified="2024-06-03T20:29:46.420Z" agent="Mozilla/5.0 (Windows NT 10.0; Win64; x64) AppleWebKit/537.36 (KHTML, like Gecko) Chrome/125.0.0.0 Safari/537.36" etag="LucGXaBhkh1eiU2PPZ38" version="24.4.13" type="google">
  <diagram name="Page-1" id="4qEa1BuNvkV7AmKnP58F">
    <mxGraphModel grid="1" page="1" gridSize="10" guides="1" tooltips="1" connect="1" arrows="1" fold="1" pageScale="1" pageWidth="850" pageHeight="1100" math="0" shadow="0">
      <root>
        <mxCell id="0" />
        <mxCell id="1" parent="0" />
        <mxCell id="56Ba_HqfqluESJoBzV24-10" value="" style="rounded=0;whiteSpace=wrap;html=1;fillColor=#666666;fontColor=#ffffff;strokeColor=#314354;" vertex="1" parent="1">
          <mxGeometry x="330" y="10" width="220" height="90" as="geometry" />
        </mxCell>
        <mxCell id="56Ba_HqfqluESJoBzV24-11" value="&lt;h1&gt;&lt;font face=&quot;Times New Roman&quot;&gt;GAME&lt;/font&gt;&lt;/h1&gt;" style="rounded=0;whiteSpace=wrap;html=1;fillColor=#d5e8d4;strokeColor=#82b366;" vertex="1" parent="1">
          <mxGeometry x="345" y="20" width="190" height="70" as="geometry" />
        </mxCell>
        <mxCell id="56Ba_HqfqluESJoBzV24-12" value="" style="rounded=0;whiteSpace=wrap;html=1;fillColor=#333333;fontColor=#ffffff;strokeColor=#314354;" vertex="1" parent="1">
          <mxGeometry x="383" y="100" width="115" height="10" as="geometry" />
        </mxCell>
        <mxCell id="kT_O2dL_zI-KmxATSQgB-61" style="edgeStyle=orthogonalEdgeStyle;rounded=0;orthogonalLoop=1;jettySize=auto;html=1;exitX=0.5;exitY=0;exitDx=0;exitDy=0;entryX=0.5;entryY=1;entryDx=0;entryDy=0;" edge="1" parent="1" source="kT_O2dL_zI-KmxATSQgB-1" target="kT_O2dL_zI-KmxATSQgB-59">
          <mxGeometry relative="1" as="geometry" />
        </mxCell>
        <mxCell id="kT_O2dL_zI-KmxATSQgB-1" value="&lt;div style=&quot;text-align: center;&quot;&gt;&lt;b style=&quot;background-color: initial;&quot;&gt;&lt;u&gt;GameControl&lt;/u&gt;&lt;/b&gt;&lt;/div&gt;&lt;div&gt;&lt;br&gt;&lt;div&gt;- Loops game&lt;/div&gt;&lt;div&gt;- Defines the game objects&lt;/div&gt;&lt;/div&gt;&lt;div&gt;- Runs game timer&lt;/div&gt;&lt;div&gt;- Updates animations (plays animations)&lt;/div&gt;" style="whiteSpace=wrap;html=1;aspect=fixed;align=left;fillColor=#ffe6cc;strokeColor=#d79b00;" vertex="1" parent="1">
          <mxGeometry x="370" y="280" width="140" height="140" as="geometry" />
        </mxCell>
        <mxCell id="kT_O2dL_zI-KmxATSQgB-64" style="edgeStyle=orthogonalEdgeStyle;rounded=0;orthogonalLoop=1;jettySize=auto;html=1;entryX=0;entryY=0.5;entryDx=0;entryDy=0;exitX=0.5;exitY=0;exitDx=0;exitDy=0;" edge="1" parent="1" source="kT_O2dL_zI-KmxATSQgB-3" target="kT_O2dL_zI-KmxATSQgB-59">
          <mxGeometry relative="1" as="geometry">
            <Array as="points">
              <mxPoint x="250" y="195" />
            </Array>
          </mxGeometry>
        </mxCell>
        <mxCell id="kT_O2dL_zI-KmxATSQgB-3" value="&lt;b&gt;&lt;u&gt;GameSetup&lt;/u&gt;&lt;/b&gt;&lt;div&gt;&lt;br&gt;&lt;/div&gt;&lt;div style=&quot;text-align: left;&quot;&gt;- Applies each level&lt;/div&gt;&lt;div style=&quot;text-align: left;&quot;&gt;- Links each level into separate files&lt;/div&gt;" style="whiteSpace=wrap;html=1;aspect=fixed;fillColor=#fff2cc;strokeColor=#d6b656;" vertex="1" parent="1">
          <mxGeometry x="180" y="470" width="140" height="140" as="geometry" />
        </mxCell>
        <mxCell id="kT_O2dL_zI-KmxATSQgB-8" style="edgeStyle=orthogonalEdgeStyle;rounded=0;orthogonalLoop=1;jettySize=auto;html=1;entryX=0;entryY=0.5;entryDx=0;entryDy=0;" edge="1" parent="1" source="kT_O2dL_zI-KmxATSQgB-5" target="kT_O2dL_zI-KmxATSQgB-3">
          <mxGeometry relative="1" as="geometry">
            <Array as="points">
              <mxPoint x="120" y="540" />
            </Array>
          </mxGeometry>
        </mxCell>
        <mxCell id="kT_O2dL_zI-KmxATSQgB-5" value="&lt;b&gt;&lt;u&gt;GameSetter (Individual)&lt;/u&gt;&lt;/b&gt;&lt;div&gt;&lt;br&gt;&lt;/div&gt;&lt;div style=&quot;text-align: left;&quot;&gt;- Contains individual game objects to create game level&lt;/div&gt;&lt;div style=&quot;text-align: left;&quot;&gt;- Applies animation logic for each object&lt;/div&gt;" style="whiteSpace=wrap;html=1;aspect=fixed;fillColor=#d5e8d4;strokeColor=#82b366;" vertex="1" parent="1">
          <mxGeometry x="50" y="630" width="160" height="160" as="geometry" />
        </mxCell>
        <mxCell id="kT_O2dL_zI-KmxATSQgB-51" style="edgeStyle=orthogonalEdgeStyle;rounded=0;orthogonalLoop=1;jettySize=auto;html=1;entryX=0.5;entryY=1;entryDx=0;entryDy=0;" edge="1" parent="1" source="kT_O2dL_zI-KmxATSQgB-6" target="kT_O2dL_zI-KmxATSQgB-1">
          <mxGeometry relative="1" as="geometry" />
        </mxCell>
        <mxCell id="kT_O2dL_zI-KmxATSQgB-52" style="edgeStyle=orthogonalEdgeStyle;rounded=0;orthogonalLoop=1;jettySize=auto;html=1;entryX=0;entryY=0.5;entryDx=0;entryDy=0;" edge="1" parent="1" source="kT_O2dL_zI-KmxATSQgB-6" target="kT_O2dL_zI-KmxATSQgB-44">
          <mxGeometry relative="1" as="geometry" />
        </mxCell>
        <mxCell id="kT_O2dL_zI-KmxATSQgB-6" value="&lt;b&gt;&lt;u&gt;GameEnv&lt;/u&gt;&lt;/b&gt;&lt;div&gt;&lt;br&gt;&lt;/div&gt;&lt;div style=&quot;text-align: left;&quot;&gt;- Sets up controls for each level&lt;/div&gt;&lt;div style=&quot;text-align: left;&quot;&gt;- Applies updates and destruction of each animation&lt;/div&gt;" style="whiteSpace=wrap;html=1;aspect=fixed;fillColor=#fff2cc;strokeColor=#d6b656;" vertex="1" parent="1">
          <mxGeometry x="440" y="460" width="140" height="140" as="geometry" />
        </mxCell>
        <mxCell id="kT_O2dL_zI-KmxATSQgB-14" value="" style="shape=umlActor;verticalLabelPosition=bottom;verticalAlign=top;html=1;outlineConnect=0;" vertex="1" parent="1">
          <mxGeometry x="353" y="60" width="17" height="30" as="geometry" />
        </mxCell>
        <mxCell id="kT_O2dL_zI-KmxATSQgB-30" style="edgeStyle=orthogonalEdgeStyle;rounded=0;orthogonalLoop=1;jettySize=auto;html=1;" edge="1" parent="1" source="kT_O2dL_zI-KmxATSQgB-15" target="kT_O2dL_zI-KmxATSQgB-5">
          <mxGeometry relative="1" as="geometry" />
        </mxCell>
        <mxCell id="kT_O2dL_zI-KmxATSQgB-15" value="&lt;b&gt;&lt;u&gt;OBJECT FILE&lt;/u&gt;&lt;/b&gt;" style="whiteSpace=wrap;html=1;aspect=fixed;fillColor=#dae8fc;strokeColor=#6c8ebf;" vertex="1" parent="1">
          <mxGeometry x="10" y="940" width="50" height="50" as="geometry" />
        </mxCell>
        <mxCell id="kT_O2dL_zI-KmxATSQgB-20" value="&lt;b&gt;&lt;u&gt;Object Files&lt;br&gt;&lt;/u&gt;&lt;/b&gt;- Code for each animation/object&lt;br&gt;&amp;nbsp;&amp;nbsp;&amp;nbsp;&amp;nbsp;~ Code for functions of object" style="rounded=0;whiteSpace=wrap;html=1;fillColor=#dae8fc;strokeColor=#6c8ebf;" vertex="1" parent="1">
          <mxGeometry x="20" y="1000" width="200" height="50" as="geometry" />
        </mxCell>
        <mxCell id="kT_O2dL_zI-KmxATSQgB-33" style="edgeStyle=orthogonalEdgeStyle;rounded=0;orthogonalLoop=1;jettySize=auto;html=1;" edge="1" parent="1" source="kT_O2dL_zI-KmxATSQgB-22" target="kT_O2dL_zI-KmxATSQgB-5">
          <mxGeometry relative="1" as="geometry" />
        </mxCell>
        <mxCell id="kT_O2dL_zI-KmxATSQgB-22" value="&lt;b&gt;&lt;u&gt;OBJECT FILE&lt;/u&gt;&lt;/b&gt;" style="whiteSpace=wrap;html=1;aspect=fixed;fillColor=#dae8fc;strokeColor=#6c8ebf;" vertex="1" parent="1">
          <mxGeometry x="70" y="940" width="50" height="50" as="geometry" />
        </mxCell>
        <mxCell id="kT_O2dL_zI-KmxATSQgB-32" style="edgeStyle=orthogonalEdgeStyle;rounded=0;orthogonalLoop=1;jettySize=auto;html=1;" edge="1" parent="1" source="kT_O2dL_zI-KmxATSQgB-23" target="kT_O2dL_zI-KmxATSQgB-5">
          <mxGeometry relative="1" as="geometry" />
        </mxCell>
        <mxCell id="kT_O2dL_zI-KmxATSQgB-23" value="&lt;b&gt;&lt;u&gt;OBJECT FILE&lt;/u&gt;&lt;/b&gt;" style="whiteSpace=wrap;html=1;aspect=fixed;fillColor=#dae8fc;strokeColor=#6c8ebf;" vertex="1" parent="1">
          <mxGeometry x="130" y="940" width="50" height="50" as="geometry" />
        </mxCell>
        <mxCell id="kT_O2dL_zI-KmxATSQgB-31" style="edgeStyle=orthogonalEdgeStyle;rounded=0;orthogonalLoop=1;jettySize=auto;html=1;entryX=0.5;entryY=1;entryDx=0;entryDy=0;" edge="1" parent="1" source="kT_O2dL_zI-KmxATSQgB-24" target="kT_O2dL_zI-KmxATSQgB-5">
          <mxGeometry relative="1" as="geometry" />
        </mxCell>
        <mxCell id="kT_O2dL_zI-KmxATSQgB-24" value="&lt;b&gt;&lt;u&gt;OBJECT FILE&lt;/u&gt;&lt;/b&gt;" style="whiteSpace=wrap;html=1;aspect=fixed;fillColor=#dae8fc;strokeColor=#6c8ebf;" vertex="1" parent="1">
          <mxGeometry x="190" y="940" width="50" height="50" as="geometry" />
        </mxCell>
        <mxCell id="kT_O2dL_zI-KmxATSQgB-58" style="edgeStyle=orthogonalEdgeStyle;rounded=0;orthogonalLoop=1;jettySize=auto;html=1;entryX=1;entryY=0.5;entryDx=0;entryDy=0;" edge="1" parent="1" source="kT_O2dL_zI-KmxATSQgB-44" target="kT_O2dL_zI-KmxATSQgB-6">
          <mxGeometry relative="1" as="geometry" />
        </mxCell>
        <mxCell id="kT_O2dL_zI-KmxATSQgB-44" value="&lt;b&gt;&lt;u&gt;GameObject&lt;/u&gt;&lt;/b&gt;&lt;div&gt;&lt;br&gt;&lt;/div&gt;&lt;div style=&quot;text-align: left;&quot;&gt;- Sets up controls for each level&lt;/div&gt;&lt;div style=&quot;text-align: left;&quot;&gt;- Applies updates and destruction of each animation&lt;/div&gt;" style="whiteSpace=wrap;html=1;aspect=fixed;fillColor=#fff2cc;strokeColor=#d6b656;" vertex="1" parent="1">
          <mxGeometry x="620" y="460" width="140" height="140" as="geometry" />
        </mxCell>
        <mxCell id="kT_O2dL_zI-KmxATSQgB-49" style="edgeStyle=orthogonalEdgeStyle;rounded=0;orthogonalLoop=1;jettySize=auto;html=1;entryX=1;entryY=0.5;entryDx=0;entryDy=0;exitX=0.5;exitY=0;exitDx=0;exitDy=0;" edge="1" parent="1" source="kT_O2dL_zI-KmxATSQgB-48" target="kT_O2dL_zI-KmxATSQgB-44">
          <mxGeometry relative="1" as="geometry">
            <Array as="points">
              <mxPoint x="790" y="620" />
              <mxPoint x="790" y="530" />
            </Array>
          </mxGeometry>
        </mxCell>
        <mxCell id="kT_O2dL_zI-KmxATSQgB-48" value="&lt;b&gt;&lt;u&gt;Multiplayer&lt;/u&gt;&lt;/b&gt;&lt;div&gt;- Code for Multiple players to play&lt;/div&gt;" style="whiteSpace=wrap;html=1;aspect=fixed;fillColor=#d5e8d4;strokeColor=#82b366;" vertex="1" parent="1">
          <mxGeometry x="740" y="620" width="90" height="90" as="geometry" />
        </mxCell>
        <mxCell id="kT_O2dL_zI-KmxATSQgB-62" style="edgeStyle=orthogonalEdgeStyle;rounded=0;orthogonalLoop=1;jettySize=auto;html=1;entryX=0.5;entryY=1;entryDx=0;entryDy=0;" edge="1" parent="1" source="kT_O2dL_zI-KmxATSQgB-59" target="56Ba_HqfqluESJoBzV24-12">
          <mxGeometry relative="1" as="geometry" />
        </mxCell>
        <mxCell id="kT_O2dL_zI-KmxATSQgB-59" value="index.md&lt;div&gt;- Connecter for all main files&lt;/div&gt;&lt;div&gt;- Displays game&lt;/div&gt;" style="whiteSpace=wrap;html=1;aspect=fixed;fillColor=#f8cecc;strokeColor=#b85450;" vertex="1" parent="1">
          <mxGeometry x="385" y="140" width="110" height="110" as="geometry" />
        </mxCell>
        <mxCell id="kT_O2dL_zI-KmxATSQgB-66" style="edgeStyle=orthogonalEdgeStyle;rounded=0;orthogonalLoop=1;jettySize=auto;html=1;exitX=0.5;exitY=0;exitDx=0;exitDy=0;entryX=1;entryY=0.5;entryDx=0;entryDy=0;" edge="1" parent="1" source="kT_O2dL_zI-KmxATSQgB-6" target="kT_O2dL_zI-KmxATSQgB-59">
          <mxGeometry relative="1" as="geometry">
            <Array as="points">
              <mxPoint x="590" y="440" />
              <mxPoint x="590" y="195" />
            </Array>
          </mxGeometry>
        </mxCell>
        <mxCell id="kT_O2dL_zI-KmxATSQgB-69" style="edgeStyle=orthogonalEdgeStyle;rounded=0;orthogonalLoop=1;jettySize=auto;html=1;entryX=1;entryY=0.75;entryDx=0;entryDy=0;" edge="1" parent="1" source="kT_O2dL_zI-KmxATSQgB-67" target="kT_O2dL_zI-KmxATSQgB-59">
          <mxGeometry relative="1" as="geometry">
            <Array as="points">
              <mxPoint x="650" y="223" />
              <mxPoint x="650" y="223" />
            </Array>
          </mxGeometry>
        </mxCell>
        <mxCell id="kT_O2dL_zI-KmxATSQgB-67" value="&lt;div&gt;&lt;b&gt;&lt;u&gt;Leaderboard&lt;/u&gt;&lt;/b&gt;&lt;/div&gt;&lt;div&gt;&lt;b&gt;&lt;u&gt;&lt;br&gt;&lt;/u&gt;&lt;/b&gt;&lt;/div&gt;&lt;div style=&quot;text-align: left;&quot;&gt;- Codes for multiplayer scores and coin scores&lt;/div&gt;" style="whiteSpace=wrap;html=1;aspect=fixed;fillColor=#ffe6cc;strokeColor=#d79b00;" vertex="1" parent="1">
          <mxGeometry x="690" y="150" width="140" height="140" as="geometry" />
        </mxCell>
        <mxCell id="kT_O2dL_zI-KmxATSQgB-71" style="edgeStyle=orthogonalEdgeStyle;rounded=0;orthogonalLoop=1;jettySize=auto;html=1;entryX=1;entryY=0.5;entryDx=0;entryDy=0;" edge="1" parent="1" source="kT_O2dL_zI-KmxATSQgB-70" target="kT_O2dL_zI-KmxATSQgB-3">
          <mxGeometry relative="1" as="geometry" />
        </mxCell>
        <mxCell id="kT_O2dL_zI-KmxATSQgB-70" value="&lt;b&gt;&lt;u&gt;GameSet&lt;/u&gt;&lt;/b&gt;&lt;div&gt;&lt;br&gt;&lt;/div&gt;&lt;div style=&quot;text-align: left;&quot;&gt;- Organizes Game objects&lt;/div&gt;&lt;div style=&quot;text-align: left;&quot;&gt;- Filers game difficulty and file paths&lt;/div&gt;" style="whiteSpace=wrap;html=1;aspect=fixed;fillColor=#d5e8d4;strokeColor=#82b366;" vertex="1" parent="1">
          <mxGeometry x="291.5" y="640" width="140" height="140" as="geometry" />
        </mxCell>
      </root>
    </mxGraphModel>
  </diagram>
</mxfile>
